# xmcd
#
# Track frame offsets:
#	150
#	10785
#	24746
#	36558
#	53479
#	67277
#	79820
#	95867
#	107864
#	122964
#	133627
#	147559
#	161413
#	175454
#
# Disc length: 2535 seconds
#
# Revision: 1
# Processed by: cddbd v1.5.2PL0 Copyright (c) Steve Scherf et al.
# Submitted via: audiograbber 1.83.01
#
DISCID=d109e50e
DTITLE=Various Artist - Die Berge sind mein Zuhaus´
DYEAR=2008
DGENRE=Pop
TTITLE0=Hippacher Trio - Die Berge sind mein Zuhaus
TTITLE1=Alpentrio Tirol - Abend in den Bergen
TTITLE2=Harry Prünster - Bergvagabunden
TTITLE3=Tiroler Nachtschwärmer - Coro Alpino
TTITLE4=Joschy der Waldgeist und das Bernsteinduo - Alpenecho
TTITLE5=Heimatland Quintett - Im Herzen a Bergler
TTITLE6=Trientiner Bergsteigerchor - La Montanara
TTITLE7=Kreuzjoch Duo - Ein kleines Kreuz
TTITLE8=Die Hegl - Heimat der Berge
TTITLE9=Erich Edlinger - Steig ich den Berg hinan
TTITLE10=Die Vaiolets - Heimatweh nach den Bergen
TTITLE11=Zillertal Buam - Wir sind Kinder der Berge
TTITLE12=Marc Pircher - Feierabend in den Bergen
TTITLE13=Die Kaisermandln - Karwendellied
EXTD=
EXTT0=
EXTT1=
EXTT2=
EXTT3=
EXTT4=
EXTT5=
EXTT6=
EXTT7=
EXTT8=
EXTT9=
EXTT10=
EXTT11=
EXTT12=
EXTT13=
PLAYORDER=
